<?xml version="1.0" standalone="no"?>
<!DOCTYPE svg PUBLIC "-//W3C//DTD SVG 20010904//EN"
 "http://www.w3.org/TR/2001/REC-SVG-20010904/DTD/svg10.dtd">
<svg version="1.0" xmlns="http://www.w3.org/2000/svg"
 width="700.000000pt" height="700.000000pt" viewBox="0 0 700.000000 700.000000"
 preserveAspectRatio="xMidYMid meet">
<metadata>
Created by potrace 1.11, written by Peter Selinger 2001-2013
</metadata>
<g transform="translate(0.000000,700.000000) scale(0.100000,-0.100000)"
fill="#000000" stroke="none">
<path d="M3256 6990 c-394 -68 -683 -426 -663 -823 5 -115 9 -136 39 -226 36
-110 98 -210 196 -313 l55 -58 -27 -10 c-15 -5 -30 -10 -33 -10 -5 0 -144 -70
-203 -102 -122 -66 -308 -227 -413 -357 l-51 -64 -96 6 c-108 6 -173 25 -245
72 -130 83 -206 221 -206 375 0 203 116 361 317 430 80 28 211 22 297 -14 38
-15 85 -30 105 -33 72 -9 142 58 142 135 0 71 -47 117 -161 160 -235 87 -513
43 -705 -115 -74 -59 -96 -83 -148 -163 -82 -124 -115 -226 -121 -375 -3 -70
1 -109 20 -200 19 -93 91 -227 167 -310 33 -36 54 -65 46 -65 -24 -1 -186 -87
-275 -147 -175 -116 -361 -329 -458 -522 -38 -76 -98 -249 -109 -311 -3 -19
-11 -66 -17 -105 -18 -107 -17 -972 1 -1005 21 -40 61 -69 105 -75 50 -8 81 4
120 45 35 36 32 -9 38 645 4 361 5 370 33 482 88 350 367 642 730 762 90 30
240 59 250 48 3 -3 -8 -43 -25 -89 -48 -131 -68 -218 -87 -383 -2 -16 -4 -367
-5 -780 0 -669 1 -758 16 -825 59 -260 248 -466 507 -551 50 -16 100 -29 113
-29 12 0 35 -3 51 -6 l29 -5 -2 -896 c-1 -492 -4 -898 -8 -901 -4 -4 -87 -7
-186 -7 l-179 -1 0 761 c0 837 3 800 -60 845 -37 26 -107 29 -144 5 -14 -10
-36 -31 -48 -48 l-22 -31 -2 -761 c-1 -418 -2 -763 -3 -766 0 -3 -75 -5 -166
-5 l-165 0 0 1693 c0 1834 3 1719 -53 1771 -31 29 -101 37 -145 15 -18 -8 -42
-31 -54 -51 l-21 -35 -2 -1691 c-1 -930 -3 -1693 -3 -1697 -1 -3 -244 -5 -539
-5 -296 1 -550 -1 -565 -3 -45 -6 -99 -60 -108 -109 -10 -57 20 -120 70 -144
33 -17 213 -18 3320 -18 3186 0 3286 1 3320 19 44 23 72 71 72 121 -1 49 -13
72 -58 106 l-36 28 -606 0 -607 1 -2 1020 c-6 2390 -6 2378 -26 2408 -56 86
-178 86 -234 0 -17 -26 -18 -105 -18 -1728 l0 -1700 -195 0 -195 0 -3 760 c-3
693 -4 763 -20 795 -36 73 -132 95 -196 46 -21 -15 -42 -40 -48 -54 -8 -19
-11 -261 -12 -787 l-1 -760 -162 -1 -163 0 0 130 c-2 865 0 1669 4 1673 2 2
37 11 78 20 156 32 268 93 389 213 83 83 94 98 150 211 66 133 64 104 64 959
0 426 -4 808 -8 849 -10 90 -57 274 -91 356 l-24 60 24 3 c32 4 177 -23 255
-49 279 -91 522 -300 647 -555 104 -212 113 -278 116 -834 2 -391 4 -449 19
-476 51 -97 189 -93 240 6 17 33 18 66 13 495 -2 253 -7 478 -10 500 -33 215
-97 394 -198 550 -158 244 -394 439 -653 541 -38 15 -72 29 -74 31 -3 2 11 20
31 41 119 125 188 307 188 489 -1 178 -71 353 -193 484 -56 59 -128 119 -145
119 -6 0 -12 3 -14 8 -6 14 -83 50 -151 71 -175 53 -353 43 -512 -29 -86 -39
-110 -69 -110 -135 0 -103 85 -164 180 -128 115 42 163 53 225 52 153 -5 287
-77 367 -197 170 -256 48 -591 -247 -681 -19 -6 -64 -13 -100 -16 l-65 -6 -35
48 c-57 79 -214 227 -318 300 -109 77 -240 147 -354 189 l-76 28 59 64 c74 82
132 182 172 297 27 78 31 106 33 215 5 186 -31 321 -122 460 -147 225 -380
357 -644 365 -63 2 -137 -1 -164 -5z m264 -280 c125 -34 260 -135 323 -243 67
-114 90 -262 61 -386 -55 -237 -276 -411 -521 -411 -235 0 -463 190 -508 422
-35 183 17 351 148 480 64 64 191 133 261 143 22 3 41 7 43 9 7 7 153 -3 193
-14z m72 -1324 c32 -3 88 -13 124 -22 515 -119 886 -494 989 -998 16 -75 19
-217 19 -871 l1 -740 -24 -70 c-37 -110 -113 -205 -207 -260 -46 -27 -172 -71
-180 -63 -3 3 -5 401 -5 885 0 811 -1 882 -17 913 -49 96 -183 101 -237 10
-20 -35 -20 -38 -20 -1957 -1 -1057 -4 -1926 -9 -1930 -4 -4 -113 -8 -242 -9
-230 0 -234 0 -235 20 0 12 -1 445 -1 963 0 913 -1 944 -20 982 -47 95 -186
93 -241 -4 -9 -15 -12 -281 -13 -980 -1 -528 -3 -965 -3 -971 -1 -15 -411 -15
-412 0 -1 6 -2 875 -3 1931 -1 1916 -1 1920 -22 1955 -52 90 -184 86 -234 -7
-16 -30 -17 -102 -16 -918 l1 -886 -40 4 c-160 20 -324 157 -381 318 -18 51
-19 91 -20 804 -1 413 2 775 6 805 15 99 20 124 50 220 116 379 428 689 820
818 189 61 370 80 572 58z"/>
<path d="M805 2512 c-87 -18 -133 -130 -85 -207 25 -39 53 -56 104 -60 107 -8
182 109 127 198 -12 19 -27 40 -34 45 -17 14 -87 29 -112 24z"/>
<path d="M6025 2513 c-69 -13 -112 -55 -120 -115 -14 -105 90 -184 187 -143
60 24 94 96 77 160 -15 57 -90 107 -144 98z"/>
</g>
</svg>
